<svg width="139" height="17" viewBox="0 0 139 17" fill="none" xmlns="http://www.w3.org/2000/svg">
<path d="M16.1377 16.022C14.8324 16.022 14.1797 15.8753 14.1797 15.582L13.7177 6.76L11.0337 15.692C10.975 15.868 10.4764 15.956 9.5377 15.956C8.59903 15.956 8.11503 15.8753 8.0857 15.714L5.3137 6.672L5.0057 15.45C4.99103 15.67 4.71236 15.824 4.1697 15.912C3.62703 15.9853 3.17236 16.022 2.8057 16.022C2.4537 16.022 2.10903 16 1.7717 15.956C1.0677 15.8533 0.723029 15.67 0.737695 15.406L1.2437 1.106C1.2437 0.753999 2.13836 0.577999 3.9277 0.577999C4.4557 0.577999 5.10103 0.621999 5.8637 0.709999C6.62636 0.783332 7.0517 0.937332 7.1397 1.172L9.6037 8.102L11.7597 1.15C11.8917 0.768666 12.9037 0.577999 14.7957 0.577999C15.3384 0.577999 15.9837 0.621999 16.7317 0.709999C17.4944 0.783332 17.8757 0.922665 17.8757 1.128L18.5137 15.56C18.5137 15.7213 18.2277 15.8387 17.6557 15.912C17.0837 15.9853 16.5777 16.022 16.1377 16.022ZM21.5327 14.702C20.6233 13.69 20.1687 12.2893 20.1687 10.5C20.1687 8.71067 20.6233 7.31 21.5327 6.298C22.4567 5.286 23.696 4.78 25.2507 4.78C26.8053 4.78 28.0373 5.286 28.9467 6.298C29.856 7.31 30.3107 8.71067 30.3107 10.5C30.3107 12.2893 29.856 13.69 28.9467 14.702C28.0373 15.714 26.8053 16.22 25.2507 16.22C23.696 16.22 22.4567 15.714 21.5327 14.702ZM25.2507 8.454C24.4293 8.454 24.0187 9.12867 24.0187 10.478C24.0187 11.8273 24.4293 12.502 25.2507 12.502C26.0867 12.502 26.5047 11.8273 26.5047 10.478C26.5047 9.12867 26.0867 8.454 25.2507 8.454ZM36.684 15.978C36.684 16.0807 36.0166 16.132 34.682 16.132C33.3473 16.1027 32.68 16.044 32.68 15.956V8.652H32.086C31.8513 8.652 31.6606 8.51267 31.514 8.234C31.382 7.94067 31.316 7.58133 31.316 7.156C31.316 5.572 31.7853 4.78 32.724 4.78C33.384 4.78 33.934 4.98533 34.374 5.396C34.814 5.792 35.034 6.24667 35.034 6.76C35.342 6.15867 35.7526 5.682 36.266 5.33C36.794 4.96333 37.3293 4.78 37.872 4.78C38.7226 4.78 39.236 5 39.412 5.44C39.456 5.55733 39.478 5.73333 39.478 5.968C39.478 6.188 39.4046 6.59133 39.258 7.178C39.126 7.76467 38.9866 8.19 38.84 8.454C38.6933 8.718 38.6053 8.85 38.576 8.85C38.5466 8.85 38.4073 8.79867 38.158 8.696C37.9233 8.57867 37.7106 8.52 37.52 8.52C36.9626 8.52 36.684 8.96 36.684 9.84V15.978ZM45.4066 15.978C45.4066 16.0807 44.7393 16.132 43.4046 16.132C42.07 16.1027 41.4026 16.044 41.4026 15.956V8.652H40.8086C40.574 8.652 40.3833 8.51267 40.2366 8.234C40.1046 7.94067 40.0386 7.58133 40.0386 7.156C40.0386 5.572 40.508 4.78 41.4466 4.78C42.1066 4.78 42.6566 4.98533 43.0966 5.396C43.5366 5.792 43.7566 6.24667 43.7566 6.76C44.0646 6.15867 44.4753 5.682 44.9886 5.33C45.5166 4.96333 46.052 4.78 46.5946 4.78C47.4453 4.78 47.9586 5 48.1346 5.44C48.1786 5.55733 48.2006 5.73333 48.2006 5.968C48.2006 6.188 48.1273 6.59133 47.9806 7.178C47.8486 7.76467 47.7093 8.19 47.5626 8.454C47.416 8.718 47.328 8.85 47.2986 8.85C47.2693 8.85 47.13 8.79867 46.8806 8.696C46.646 8.57867 46.4333 8.52 46.2426 8.52C45.6853 8.52 45.4066 8.96 45.4066 9.84V15.978ZM53.3373 15.868C53.3373 15.9853 52.6626 16.044 51.3133 16.044C49.9786 16.044 49.3113 15.9927 49.3113 15.89V5.088C49.3113 4.98533 49.9786 4.934 51.3133 4.934C52.6626 4.934 53.3373 4.978 53.3373 5.066V15.868ZM53.3373 3.768C53.3373 3.87067 52.6626 3.922 51.3133 3.922C49.9786 3.922 49.3113 3.878 49.3113 3.79V0.621999C49.3113 0.475332 49.9786 0.401999 51.3133 0.401999C52.6626 0.401999 53.3373 0.445999 53.3373 0.534V3.768ZM55.7889 12.04C56.9769 12.7587 57.9156 13.118 58.6049 13.118C59.0449 13.118 59.2649 12.964 59.2649 12.656C59.2649 12.436 58.8836 12.15 58.1209 11.798C56.2876 11.05 55.3709 9.82533 55.3709 8.124C55.3709 7.03867 55.7669 6.21 56.5589 5.638C57.3509 5.066 58.2969 4.78 59.3969 4.78C60.5116 4.78 61.4502 4.89733 62.2129 5.132C62.9902 5.36667 63.3789 5.67467 63.3789 6.056C63.3789 6.37867 63.2176 6.804 62.8949 7.332C62.5869 7.86 62.3742 8.146 62.2569 8.19C61.6262 7.838 60.9442 7.662 60.2109 7.662C59.8149 7.662 59.6169 7.80133 59.6169 8.08C59.6169 8.256 59.6902 8.41 59.8369 8.542C59.9982 8.65933 60.2842 8.81333 60.6949 9.004C61.1056 9.18 61.4429 9.34133 61.7069 9.488C61.9856 9.63467 62.2936 9.84 62.6309 10.104C63.3349 10.6613 63.6869 11.3873 63.6869 12.282C63.6869 13.4553 63.2982 14.4087 62.5209 15.142C61.7436 15.8607 60.5702 16.22 59.0009 16.22C57.9596 16.22 57.0136 16.044 56.1629 15.692C55.3122 15.34 54.8869 14.856 54.8869 14.24C54.8869 13.8293 54.9822 13.3967 55.1729 12.942C55.3782 12.4873 55.5836 12.1867 55.7889 12.04ZM84.8877 16.022C83.5824 16.022 82.9297 15.8753 82.9297 15.582L82.4677 6.76L79.7837 15.692C79.725 15.868 79.2264 15.956 78.2877 15.956C77.349 15.956 76.865 15.8753 76.8357 15.714L74.0637 6.672L73.7557 15.45C73.741 15.67 73.4624 15.824 72.9197 15.912C72.377 15.9853 71.9224 16.022 71.5557 16.022C71.2037 16.022 70.859 16 70.5217 15.956C69.8177 15.8533 69.473 15.67 69.4877 15.406L69.9937 1.106C69.9937 0.753999 70.8884 0.577999 72.6777 0.577999C73.2057 0.577999 73.851 0.621999 74.6137 0.709999C75.3764 0.783332 75.8017 0.937332 75.8897 1.172L78.3537 8.102L80.5097 1.15C80.6417 0.768666 81.6537 0.577999 83.5457 0.577999C84.0884 0.577999 84.7337 0.621999 85.4817 0.709999C86.2444 0.783332 86.6257 0.922665 86.6257 1.128L87.2637 15.56C87.2637 15.7213 86.9777 15.8387 86.4057 15.912C85.8337 15.9853 85.3277 16.022 84.8877 16.022ZM90.7227 8.014C90.312 7.28067 90.1067 6.68667 90.1067 6.232C90.1067 5.76267 90.2313 5.462 90.4807 5.33C91.3167 4.96333 92.4607 4.78 93.9127 4.78C95.3793 4.78 96.4133 5.12467 97.0147 5.814C97.616 6.48867 97.9167 7.49333 97.9167 8.828V12.304H98.6647C98.914 12.304 99.1047 12.4507 99.2367 12.744C99.3833 13.0373 99.4567 13.4407 99.4567 13.954C99.4567 14.4673 99.3247 14.9733 99.0607 15.472C98.8113 15.9707 98.4667 16.22 98.0267 16.22C97.2347 16.22 96.5967 16.0073 96.1127 15.582C95.8927 15.406 95.724 15.1933 95.6067 14.944C94.932 15.7947 93.8833 16.22 92.4607 16.22C91.39 16.22 90.488 15.8387 89.7547 15.076C89.0213 14.3133 88.6547 13.4113 88.6547 12.37C88.6547 9.97933 90.0847 8.784 92.9447 8.784H94.1547V8.564C94.1547 8.18267 94.0887 7.94067 93.9567 7.838C93.8393 7.72067 93.5533 7.662 93.0987 7.662C92.5413 7.662 91.7493 7.77933 90.7227 8.014ZM92.4827 12.062C92.4827 12.3847 92.5707 12.634 92.7467 12.81C92.9227 12.9713 93.1427 13.052 93.4067 13.052C93.6853 13.052 93.9347 12.942 94.1547 12.722V11.028H93.5387C92.8347 11.028 92.4827 11.3727 92.4827 12.062ZM105.52 15.978C105.52 16.0807 104.853 16.132 103.518 16.132C102.183 16.1027 101.516 16.044 101.516 15.956V8.652H100.922C100.687 8.652 100.497 8.51267 100.35 8.234C100.218 7.94067 100.152 7.58133 100.152 7.156C100.152 5.572 100.621 4.78 101.56 4.78C102.22 4.78 102.77 4.98533 103.21 5.396C103.65 5.792 103.87 6.24667 103.87 6.76C104.178 6.15867 104.589 5.682 105.102 5.33C105.63 4.96333 106.165 4.78 106.708 4.78C107.559 4.78 108.072 5 108.248 5.44C108.292 5.55733 108.314 5.73333 108.314 5.968C108.314 6.188 108.241 6.59133 108.094 7.178C107.962 7.76467 107.823 8.19 107.676 8.454C107.529 8.718 107.441 8.85 107.412 8.85C107.383 8.85 107.243 8.79867 106.994 8.696C106.759 8.57867 106.547 8.52 106.356 8.52C105.799 8.52 105.52 8.96 105.52 9.84V15.978ZM109.425 0.775999C109.425 0.541333 110.092 0.424 111.427 0.424C112.673 0.467999 113.297 0.563332 113.297 0.709999V9.158L115.475 5.132C115.577 4.912 116.201 4.802 117.345 4.802C118.489 4.802 119.222 4.87533 119.545 5.022L116.685 9.686L119.985 15.868C120.014 15.9267 119.735 15.9707 119.149 16C118.577 16.044 118.1 16.066 117.719 16.066C116.311 16.066 115.555 16 115.453 15.868L113.275 10.984V15.846C113.275 16.0367 112.629 16.132 111.339 16.132C110.063 16.132 109.425 16.044 109.425 15.868V0.775999ZM128.869 15.406C127.945 15.9487 126.757 16.22 125.305 16.22C123.853 16.22 122.629 15.7287 121.631 14.746C120.634 13.7487 120.135 12.3773 120.135 10.632C120.135 8.872 120.612 7.45667 121.565 6.386C122.533 5.31533 123.751 4.78 125.217 4.78C126.684 4.78 127.813 5.154 128.605 5.902C129.412 6.65 129.815 7.55933 129.815 8.63C129.815 11.006 128.451 12.194 125.723 12.194H124.205C124.205 12.634 124.323 12.942 124.557 13.118C124.807 13.2793 125.166 13.36 125.635 13.36C126.662 13.36 127.637 13.1253 128.561 12.656C128.576 12.6413 128.642 12.744 128.759 12.964C129.111 13.5947 129.287 14.13 129.287 14.57C129.287 14.9953 129.148 15.274 128.869 15.406ZM126.119 9.048C126.119 8.432 125.819 8.124 125.217 8.124C124.939 8.124 124.697 8.212 124.491 8.388C124.301 8.54933 124.205 8.79133 124.205 9.114V9.796H125.393C125.877 9.796 126.119 9.54667 126.119 9.048ZM136.313 15.868C136.313 16.044 135.697 16.132 134.465 16.132C132.998 16.0733 132.265 15.978 132.265 15.846V8.058H131.143C130.849 8.058 130.703 7.552 130.703 6.54C130.703 6.276 130.725 5.95333 130.769 5.572C130.827 5.19067 130.937 5 131.099 5H132.265V3.064C132.265 2.77067 132.881 2.624 134.113 2.624C135.359 2.624 135.983 2.74133 135.983 2.976V4.384L136.005 5H137.875C138.124 5 138.249 5.51333 138.249 6.54C138.249 7.56667 138.124 8.08 137.875 8.08H136.313V15.868Z" fill="#4FC48D"/>
</svg>
